<?xml version="1.0" encoding="utf-8"?>
<!-- Generator: Adobe Illustrator 16.0.0, SVG Export Plug-In . SVG Version: 6.00 Build 0)  -->
<!DOCTYPE svg PUBLIC "-//W3C//DTD SVG 1.1//EN" "http://www.w3.org/Graphics/SVG/1.1/DTD/svg11.dtd">
<svg version="1.1" id="Ebene_1" xmlns="http://www.w3.org/2000/svg" xmlns:xlink="http://www.w3.org/1999/xlink" x="0px" y="0px"
	 width="992px" height="352px" viewBox="0 0 992 352" enable-background="new 0 0 992 352" xml:space="preserve">
<g>
	<path fill="#474745" d="M3.918,51.54v143.506h47.949L51.17,68.347c0.014-0.527,0.072-1.055,0.176-1.577
		c0.102-0.522,0.156-1.05,0.17-1.577c0.865-3.833,2.379-6.66,4.551-8.486c2.174-1.826,5.094-2.725,8.75-2.715h20.996
		c0.703,0,1.406,0,2.105,0c3.637,0.84,6.25,2.227,7.832,4.16s2.354,4.629,2.314,8.096v128.799h47.953V66.247
		c-0.023-2.939,0.547-5.288,1.705-7.046c1.162-1.758,3.041-3.145,5.645-4.155c2.158-0.703,3.793-1.055,4.902-1.055h20.996
		c4.492-0.054,7.764,1.113,9.805,3.506c1.215,1.191,2.104,2.651,2.666,4.375c0.561,1.719,0.834,3.877,0.834,6.475l-0.352,126.699
		h47.949l0.348-143.506c0-5.85-0.523-10.767-1.572-14.736c-1.051-3.975-2.623-7.578-4.727-10.811
		c-4.658-7.109-10.039-12.227-16.143-15.356s-13.326-4.658-21.656-4.595h-36.752c-9.912,0.024-17.906,1.465-23.971,4.336
		c-6.068,2.861-10.561,7.021-13.477,12.466c-3.09-5.444-7.67-9.604-13.74-12.466c-6.064-2.871-13.969-4.312-23.711-4.336H48.016
		c-8.486-0.063-15.748,1.465-21.787,4.595c-6.041,3.13-11.373,8.247-16.012,15.356c-2.25,3.232-3.871,6.836-4.854,10.811
		C4.377,40.773,3.898,45.69,3.918,51.54L3.918,51.54z"/>
	<polygon fill="#474745" points="261.184,106.14 356.74,106.14 356.74,59.943 261.184,59.943 261.184,106.14 	"/>
	<path fill-rule="evenodd" clip-rule="evenodd" fill="#474745" d="M640.939,152.341c0.059,2.803,0.293,5.605,0.703,8.398
		c2.09,11.084,7.1,19.551,15.049,25.42s18.916,8.838,32.9,8.887h65.801c11.006-0.137,20.312-3.369,27.91-9.717
		s12.529-15,14.785-25.986c0.342-1.416,0.547-2.871,0.615-4.375s0.107-2.959,0.088-4.375V50.495c0.02-1.401-0.02-2.803-0.088-4.199
		c-0.068-1.401-0.273-2.803-0.615-4.199c-1.807-11.104-5.801-19.443-11.982-25.029c-6.191-5.586-15.254-9.023-27.217-10.322
		c-2.793-0.41-5.596-0.645-8.398-0.703H641.643V51.54h96.602c0.986,0,1.807,0,2.451,0c3.438,0.488,5.918,1.274,7.432,2.368
		c1.523,1.089,2.422,2.754,2.715,4.985v2.451c0.293,1.108,0.41,2.041,0.352,2.798v4.902h-64.053
		c-14.482,0.093-25.771,4.019-33.857,11.768c-8.096,7.749-12.207,18.765-12.344,33.032V152.341L640.939,152.341z M688.889,137.644
		v-11.904c0-0.752,0-1.689,0-2.793c0.332-3.115,1.074-5.371,2.236-6.787c1.162-1.406,2.861-2.178,5.117-2.314l2.1-0.352h2.803h37.1
		c1.719-0.01,3.086,0.098,4.111,0.312c1.016,0.205,1.865,0.566,2.539,1.094c2.695,1.24,4.385,2.422,5.068,3.535
		c0.693,1.123,0.977,3.086,0.879,5.908v13.301c-0.059,2.803-0.996,5.244-2.803,7.354c-1.025,1.211-2.295,2.109-3.809,2.666
		c-1.504,0.557-3.389,0.84-5.635,0.83h-37.451c-0.645,0.059-1.465-0.059-2.451-0.352c-3.506-0.693-5.947-2.1-7.354-4.199
		c-0.869-1.094-1.494-2.227-1.875-3.408C689.074,139.353,688.889,138.386,688.889,137.644L688.889,137.644z"/>
	<path fill="#474745" d="M831.643,345.739h112.002c1.592,0,3.223-0.078,4.902-0.254s3.311-0.439,4.902-0.791
		c9.824-2.256,17.646-6.758,23.496-13.516c5.84-6.768,9.551-15.908,11.152-27.432c0.332-1.582,0.537-3.154,0.615-4.727
		c0.068-1.572,0.098-3.154,0.078-4.727V6.042h-47.598V130.29v4.902c-0.537,3.174-1.816,5.752-3.848,7.744
		c-2.021,1.992-4.707,3.262-8.047,3.809c-1.113,0.293-2.041,0.41-2.803,0.352h-33.945c-4.219,0.01-7.422-1.23-9.629-3.721
		c-2.197-2.49-3.311-6.26-3.32-11.328V6.042h-47.959v141.055c0,6.201,0.537,11.377,1.621,15.527s2.764,7.842,5.029,11.074
		c5.557,8.086,11.426,13.701,17.588,16.836c6.172,3.145,13.965,4.648,23.369,4.512h61.943v7.002v84.199
		c-0.498,2.979-1.602,5.41-3.32,7.305c-1.719,1.885-4.229,3.184-7.529,3.896c-0.752,0.283-1.689,0.4-2.793,0.342h-95.908V345.739
		L831.643,345.739z"/>
	<path fill="#BDB800" d="M3.889,346.735h46.08c1.553-0.02,3.285-0.352,5.199-1.025c1.91-0.664,3.799-1.611,5.674-2.812
		c0.885-0.713,1.709-1.484,2.471-2.314c0.768-0.84,1.436-1.768,1.998-2.803c1.039-1.621,1.801-3.291,2.299-5.01
		c0.498-1.729,0.742-3.359,0.742-4.902v-13.613c-0.059-4.805-1.543-8.955-4.457-12.451c-2.91-3.506-6.914-5.85-12.008-7.051
		c-0.645-0.088-1.312-0.166-2.002-0.225c-0.688-0.059-1.352-0.098-1.996-0.098H26.434c-1.451-0.02-2.744-0.312-3.883-0.879
		c-1.133-0.576-2.025-1.348-2.68-2.324c-0.406-0.654-0.719-1.309-0.943-1.982c-0.219-0.674-0.336-1.289-0.336-1.865v-6.24
		c0-1.357,0.238-2.49,0.717-3.389c0.484-0.898,1.201-1.582,2.158-2.061c0.645-0.322,1.24-0.557,1.787-0.723
		c0.543-0.156,1.016-0.244,1.422-0.244h2.719h41.113v-14.375H23.391c-6.045,0.049-10.742,1.787-14.086,5.215
		c-3.35,3.428-5.045,8.242-5.094,14.453v11.055c0,1.367,0.201,2.783,0.596,4.258c0.4,1.465,1.002,2.93,1.803,4.375
		c1.781,3.105,4.203,5.43,7.27,6.973c3.062,1.533,7.09,2.295,12.076,2.295h19.531c3.012-0.02,5.189,0.615,6.523,1.924
		c1.332,1.299,1.986,3.379,1.963,6.24v6.572c0,1.816-0.205,3.291-0.602,4.414c-0.4,1.133-1,2.002-1.801,2.627
		c-0.572,0.557-1.158,0.967-1.764,1.221c-0.609,0.254-1.195,0.381-1.762,0.381h-3.521H3.889V346.735L3.889,346.735z"/>
	<path fill-rule="evenodd" clip-rule="evenodd" fill="#BDB800" d="M107.365,325.466c0.088,6.133,2.184,11.182,6.295,15.127
		c4.102,3.955,9.682,6.006,16.729,6.143h26.41c2.301,0,4.346-0.205,6.143-0.625c1.797-0.41,3.482-1.064,5.059-1.934
		c4.199-2.363,7.227-5.039,9.088-8.037c1.859-2.998,2.768-6.553,2.738-10.674v-44.971c-0.014-5.615-1.67-10.098-4.961-13.457
		c-3.285-3.35-8.135-5.479-14.545-6.367c-0.557-0.088-1.123-0.156-1.699-0.225c-0.576-0.059-1.182-0.098-1.822-0.098h-26.41
		c-0.641,0.01-1.285,0.039-1.92,0.078c-0.645,0.049-1.283,0.078-1.924,0.078c-6.254,0.723-11.01,2.754-14.268,6.094
		c-3.256,3.34-4.896,7.969-4.912,13.896V325.466L107.365,325.466z M121.746,320.827v-35.693c0.01-3.447,0.908-6.035,2.68-7.783
		c1.773-1.748,4.346-2.617,7.725-2.627h23.209c3.217,0,5.703,0.85,7.441,2.568c1.742,1.709,2.621,4.326,2.641,7.842v36.328
		c-0.02,3.682-0.898,6.416-2.641,8.203c-1.738,1.797-4.225,2.695-7.441,2.686H132.15c-3.379,0.01-5.951-0.928-7.725-2.822
		C122.654,327.634,121.756,324.733,121.746,320.827L121.746,320.827z"/>
	<polygon fill="#BDB800" points="221.691,346.735 236.072,346.735 236.072,231.55 221.691,231.55 221.691,346.735 	"/>
	<path fill="#BDB800" d="M277.99,324.509c0.039,7.227,2.119,12.725,6.27,16.504c4.16,3.789,10.166,5.693,18.037,5.723h22.734
		c7.861-0.029,13.877-1.934,18.027-5.723c4.15-3.779,6.24-9.277,6.27-16.504v-64.16h-14.375v62.402
		c0.049,3.398-0.654,5.801-2.119,7.217c-1.475,1.416-4.014,2.109-7.646,2.061h-22.891c-2.959-0.029-5.244-0.527-6.865-1.504
		c-1.621-0.967-2.578-2.227-2.9-3.779l-0.156-0.479v-3.516v-62.402H277.99V324.509L277.99,324.509z"/>
	<polygon fill="#BDB800" points="391.291,346.735 405.666,346.735 405.666,274.724 420.549,274.724 420.549,260.349 
		405.666,260.349 405.666,231.55 391.291,231.55 391.291,346.735 	"/>
	<path fill-rule="evenodd" clip-rule="evenodd" fill="#BDB800" d="M450.52,346.735h14.375v-86.406H450.52V346.735L450.52,346.735z
		 M447.795,241.462c0,1.367,0.244,2.656,0.723,3.867s1.201,2.266,2.158,3.164c2.021,1.992,4.336,2.998,6.953,3.018
		s4.932-0.938,6.953-2.861c1.914-2.1,2.871-4.492,2.852-7.168c-0.01-2.686-1.016-5.029-3.018-7.051
		c-2.021-1.924-4.326-2.881-6.924-2.861c-2.607,0.02-4.873,1.025-6.816,3.018c-0.957,0.898-1.68,1.934-2.158,3.135
		S447.795,240.163,447.795,241.462L447.795,241.462z"/>
	<path fill-rule="evenodd" clip-rule="evenodd" fill="#BDB800" d="M506.975,325.466c0.098,6.133,2.197,11.182,6.299,15.127
		c4.102,3.955,9.688,6.006,16.729,6.143h26.416c2.295,0,4.346-0.205,6.143-0.625c1.797-0.41,3.477-1.064,5.059-1.934
		c4.199-2.363,7.217-5.039,9.082-8.037s2.773-6.553,2.734-10.674v-44.971c-0.01-5.615-1.66-10.098-4.951-13.457
		c-3.291-3.35-8.145-5.479-14.551-6.367c-0.557-0.088-1.123-0.156-1.699-0.225c-0.576-0.059-1.182-0.098-1.816-0.098h-26.416
		c-0.645,0.01-1.279,0.039-1.924,0.078c-0.635,0.049-1.279,0.078-1.914,0.078c-6.26,0.723-11.016,2.754-14.268,6.094
		c-3.262,3.34-4.893,7.969-4.922,13.896V325.466L506.975,325.466z M521.359,320.827v-35.693c0.02-3.447,0.908-6.035,2.676-7.783
		c1.777-1.748,4.355-2.617,7.725-2.627h23.213c3.223,0,5.703,0.85,7.441,2.568c1.748,1.709,2.627,4.326,2.646,7.842v36.328
		c-0.02,3.682-0.898,6.416-2.646,8.203c-1.738,1.797-4.219,2.695-7.441,2.686H531.76c-3.369,0.01-5.947-0.928-7.725-2.822
		C522.268,327.634,521.379,324.733,521.359,320.827L521.359,320.827z"/>
	<path fill="#BDB800" d="M621.301,346.735h14.385v-62.402c-0.059-3.398,0.654-5.801,2.139-7.227c1.484-1.416,4.082-2.1,7.783-2.061
		h22.891c2.891,0.029,5.156,0.537,6.807,1.504s2.637,2.236,2.959,3.779v0.488v3.516v62.402h14.385v-64.16
		c-0.039-7.227-2.129-12.725-6.279-16.514c-4.141-3.779-10.156-5.684-18.027-5.713h-22.734c-7.871,0.029-13.877,1.934-18.027,5.713
		c-4.15,3.789-6.24,9.287-6.279,16.514V346.735L621.301,346.735z"/>
	<path fill="#BDB800" d="M731.721,346.735h46.074c1.562-0.02,3.291-0.352,5.205-1.025c1.914-0.664,3.799-1.611,5.674-2.812
		c0.889-0.713,1.709-1.484,2.48-2.314c0.762-0.84,1.426-1.768,1.992-2.803c1.035-1.621,1.797-3.291,2.295-5.01
		c0.498-1.729,0.742-3.359,0.742-4.902v-13.613c-0.059-4.805-1.543-8.955-4.453-12.451c-2.92-3.506-6.914-5.85-12.012-7.051
		c-0.645-0.088-1.309-0.166-2.002-0.225c-0.684-0.059-1.348-0.098-1.992-0.098H754.27c-1.455-0.02-2.754-0.312-3.887-0.879
		c-1.133-0.576-2.021-1.348-2.676-2.324c-0.41-0.654-0.723-1.309-0.947-1.982c-0.215-0.674-0.332-1.289-0.332-1.865v-6.24
		c0-1.357,0.234-2.49,0.713-3.389s1.201-1.582,2.168-2.061c0.635-0.322,1.23-0.557,1.777-0.723c0.547-0.156,1.016-0.244,1.416-0.244
		h2.725h41.113v-14.375h-45.117c-6.045,0.049-10.742,1.787-14.092,5.215c-3.34,3.428-5.039,8.242-5.088,14.453v11.055
		c0,1.367,0.195,2.783,0.596,4.258c0.4,1.465,1.006,2.93,1.797,4.375c1.787,3.105,4.209,5.43,7.275,6.973
		c3.066,1.533,7.09,2.295,12.07,2.295h19.541c3.008-0.02,5.186,0.615,6.523,1.924c1.328,1.299,1.982,3.379,1.953,6.24v6.572
		c0,1.816-0.195,3.291-0.596,4.414c-0.4,1.133-1.006,2.002-1.797,2.627c-0.566,0.557-1.162,0.967-1.768,1.221
		s-1.191,0.381-1.758,0.381h-3.525h-40.635V346.735L731.721,346.735z"/>
	<path fill="#474745" d="M616.262,149.538V6.042h-47.949l0.703,126.699c-0.02,0.527-0.078,1.055-0.176,1.572
		c-0.107,0.527-0.166,1.055-0.176,1.582c-0.869,3.828-2.383,6.66-4.551,8.486c-2.178,1.826-5.088,2.725-8.75,2.715h-21.006
		c-0.693,0-1.396,0-2.1,0c-3.633-0.84-6.24-2.227-7.822-4.16s-2.363-4.629-2.324-8.096V6.042h-47.949v128.799
		c0.02,2.939-0.547,5.293-1.709,7.041c-1.162,1.768-3.037,3.145-5.645,4.16c-2.158,0.703-3.789,1.055-4.893,1.055H440.91
		c-4.492,0.059-7.754-1.113-9.805-3.506c-1.211-1.191-2.1-2.656-2.666-4.375c-0.557-1.719-0.83-3.877-0.83-6.475l0.352-126.699
		h-47.949l-0.352,143.496c0,5.859,0.527,10.771,1.572,14.746c1.055,3.975,2.627,7.578,4.727,10.811
		c4.658,7.109,10.039,12.227,16.143,15.352s13.33,4.658,21.66,4.6h36.748c9.912-0.029,17.91-1.475,23.975-4.336
		c6.074-2.861,10.566-7.021,13.477-12.471c3.096,5.449,7.666,9.609,13.74,12.471c6.064,2.861,13.965,4.307,23.711,4.336h36.748
		c8.486,0.059,15.752-1.475,21.787-4.6s11.377-8.242,16.016-15.352c2.246-3.232,3.867-6.836,4.854-10.811
		S616.281,155.397,616.262,149.538L616.262,149.538z"/>
</g>
</svg>
